<?xml version="1.0" encoding="UTF-8" standalone="no"?>
<svg
   xmlns:dc="http://purl.org/dc/elements/1.1/"
   xmlns:cc="http://creativecommons.org/ns#"
   xmlns:rdf="http://www.w3.org/1999/02/22-rdf-syntax-ns#"
   xmlns:svg="http://www.w3.org/2000/svg"
   xmlns="http://www.w3.org/2000/svg"
   xmlns:sodipodi="http://sodipodi.sourceforge.net/DTD/sodipodi-0.dtd"
   xmlns:inkscape="http://www.inkscape.org/namespaces/inkscape"
   version="1.1"
   viewBox="0 0 200 122"
   stroke-miterlimit="10"
   id="svg2"
   inkscape:version="0.91 r13725"
   sodipodi:docname="SumoLogo.svg"
   width="120"
   height="73"
   style="fill:none;stroke:none;stroke-linecap:square;stroke-miterlimit:10"
   inkscape:export-filename="/Volumes/DATA/robokoding/assets/logo/SumoLogo.png"
   inkscape:export-xdpi="90"
   inkscape:export-ydpi="90">
  <metadata
     id="metadata43">
    <rdf:RDF>
      <cc:Work
         rdf:about="">
        <dc:format>image/svg+xml</dc:format>
        <dc:type
           rdf:resource="http://purl.org/dc/dcmitype/StillImage" />
        <dc:title></dc:title>
      </cc:Work>
    </rdf:RDF>
  </metadata>
  <defs
     id="defs41" />
  <sodipodi:namedview
     pagecolor="#ffffff"
     bordercolor="#666666"
     borderopacity="1"
     objecttolerance="10"
     gridtolerance="10"
     guidetolerance="10"
     inkscape:pageopacity="0"
     inkscape:pageshadow="2"
     inkscape:window-width="1440"
     inkscape:window-height="775"
     id="namedview39"
     showgrid="true"
     inkscape:zoom="0.263"
     inkscape:cx="847.34527"
     inkscape:cy="1049.7225"
     inkscape:window-x="0"
     inkscape:window-y="1"
     inkscape:window-maximized="1"
     inkscape:current-layer="g3347"
     showguides="false"
     inkscape:snap-intersection-paths="true"
     inkscape:object-nodes="true"
     inkscape:snap-smooth-nodes="true"
     inkscape:snap-midpoints="true"
     inkscape:object-paths="true"
     inkscape:snap-bbox="true"
     inkscape:snap-nodes="false">
    <inkscape:grid
       type="xygrid"
       id="grid4159" />
  </sodipodi:namedview>
  <clipPath
     id="g365e38974c_0_0.0">
    <path
       d="M 0,0 960,0 960,540 0,540 0,0 Z"
       id="path5"
       inkscape:connector-curvature="0"
       style="clip-rule:nonzero" />
  </clipPath>
  <g
     clip-path="url(#g365e38974c_0_0.0)"
     id="g7"
     transform="matrix(4.4490055,0,0,4.4490055,-930.37699,-1978.8556)"
     inkscape:export-xdpi="90"
     inkscape:export-ydpi="90">
    <path
       d="m 161.99182,368.809 624.441,0 0,79.4646 -624.441,0 z"
       id="path19"
       inkscape:connector-curvature="0"
       style="fill:#000000;fill-opacity:0;fill-rule:evenodd" />
    <g
       id="g4542"
       transform="matrix(1.0456426,0,0,1.0456426,-31.464439,-64.466142)">
      <g
         id="g3347"
         transform="matrix(0.41259539,0,0,0.41259539,242.31996,152.93444)">
        <g
           id="g4184"
           transform="matrix(0.11111111,0,0,0.11111111,-33.29472,806.02144)">
          <path
             style="fill:#be00dd;fill-rule:nonzero;stroke:none;stroke-linecap:square;stroke-miterlimit:10"
             inkscape:connector-curvature="0"
             id="path17-6"
             d="m 134.02213,376.68604 0,133.512 q 0,12.57072 9.02445,21.61884 9.04745,9.02513 21.59418,9.02513 l 22.79131,0 0,64.39611 -22.79131,0 q -39.25171,0 -67.130771,-27.88119 -27.879066,-27.88119 -27.879066,-67.15889 l 0,-128.00944 q -4.719414,-3.13115 -18.071897,-11.37351 -13.352487,-8.26534 -18.83161,-11.39651 l 0,-75.40124 36.903507,-19.63887 0,-128.79216 q 0,-40.060514 27.879066,-67.941704 27.879061,-27.88119 67.130771,-27.88119 l 22.79131,0 0,65.201934 -22.79131,0 q -12.54673,0 -21.59418,9.02511 -9.02445,9.02511 -9.02445,21.59585 l 0,134.29474 -65.956674,52.63121 65.956674,54.17378 z" />
          <path
             style="fill:#3768d8;fill-rule:nonzero;stroke:none;stroke-linecap:square;stroke-miterlimit:10"
             inkscape:connector-curvature="0"
             id="path21-9"
             d="m 869.97453,510.19804 0,-132.7062 65.97968,-54.19676 -65.97968,-51.84844 0,-135.86033 q 0,-12.57074 -9.02444,-21.59585 -9.02446,-9.02511 -21.59421,-9.02511 l -22.7683,0 0,-65.201934 22.7683,0 q 39.2747,0 67.1538,27.88119 27.87905,27.88119 27.87905,67.941704 l 0,128.7922 q 6.26187,3.15416 19.61435,11.39653 13.35249,8.2423 16.50641,9.80791 l 0,74.61844 -36.12076,22.77001 0,127.22664 q 0,39.2777 -27.87905,67.15889 -27.8791,27.88119 -67.1538,27.88119 l -22.7683,0 0,-64.39611 22.7683,0 q 12.56975,0 21.59421,-9.02513 9.02444,-9.04812 9.02444,-21.61884 z" />
          <text
             id="text4369"
             y="604.82758"
             x="501.17261"
             style="font-style:normal;font-weight:normal;line-height:0%;font-family:sans-serif;text-align:center;letter-spacing:0px;word-spacing:0px;text-anchor:middle;fill:#3768d8;fill-opacity:1;stroke:none;stroke-width:1px;stroke-linecap:butt;stroke-linejoin:miter;stroke-miterlimit:10;stroke-opacity:1"
             xml:space="preserve"
             sodipodi:linespacing="0%"><tspan
               style="font-style:normal;font-variant:normal;font-weight:bold;font-stretch:normal;font-size:92.47573853px;line-height:1.25;font-family:Orbitron;-inkscape-font-specification:'Orbitron Bold';fill:#3768d8;fill-opacity:1"
               id="tspan4373"
               y="604.82758"
               x="501.17261"
               sodipodi:role="line">SumoRobot</tspan></text>
          <path
             inkscape:connector-curvature="0"
             id="path15"
             d="m 273.25,161.37098 -2.80783,0.11045 -5.54561,0.58942 -7.93616,1.76505 -9.77236,4.11953 -8.73468,5.92175 -7.45084,7.3958 -5.88983,8.75095 -4.12568,9.78425 -1.76715,7.87054 -0.62241,5.55642 -0.10606,2.83131 0,40.09181 -46.16104,0 -1.76714,0.11046 -3.29415,1.39653 -1.41892,1.17777 -1.17977,1.43583 -1.42092,3.31027 -0.10407,1.76506 0,119.87187 0.10407,1.91056 1.42092,3.27521 2.49562,2.61152 3.29114,1.43581 1.87322,0.10935 46.16104,0 0,40.05575 0.10606,2.83129 0.62241,5.55427 1.76715,7.90772 4.12568,9.78425 5.88983,8.71588 7.45084,7.43092 8.73468,5.88666 9.77236,4.11954 7.93616,1.76397 5.54561,0.58627 2.80783,0 457.64053,0 2.8409,0 5.5445,-0.58627 7.9011,-1.76397 9.8074,-4.11954 8.7007,-5.88666 7.4498,-7.43092 5.8909,-8.71588 4.1607,-9.78425 1.7671,-7.90772 0.5894,-5.55427 0,-2.83129 0,-40.05467 45.3295,0 1.7681,-0.25914 3.3282,-1.2882 1.3849,-1.17672 1.2138,-1.4337 1.3868,-3.27521 0.1372,-1.91056 0,-119.76142 -0.1372,-1.87657 -1.3868,-3.30921 -2.4947,-2.6136 -3.2921,-1.39548 -1.9082,-0.11151 -45.3295,0 0,-40.09181 -0.1381,-5.44491 -2.1134,-10.48094 -4.1256,-9.89473 -5.9269,-8.82845 -3.6374,-4.01014 -4.0226,-3.67666 -8.9748,-5.99503 -9.7724,-4.01014 -10.53476,-2.13251 -5.40654,-0.22196 -457.64053,0 z m 201.16384,27.27658 53.14655,0 c 6.96225,0 12.60524,6.20691 12.60524,13.86343 0,7.65652 -5.64299,13.86344 -12.60524,13.86344 l -53.14655,0 c -6.96219,0 -12.60617,-6.20692 -12.6062,-13.86344 0,-7.65652 5.64401,-13.86343 12.6062,-13.86343 z m 269.99239,0.006 c 3.4624,0 6.7818,1.46058 9.23,4.05898 2.4483,2.59841 3.8246,6.12337 3.8246,9.79808 0,7.65215 -5.8445,13.856 -13.0546,13.856 -7.20998,0 -13.0553,-6.20385 -13.0553,-13.856 0,-7.65218 5.84532,-13.85706 13.0553,-13.85706 z m -486.83843,0.002 c 3.46241,0 6.78473,1.46058 9.23301,4.05899 2.44829,2.5984 3.82348,6.12337 3.82348,9.79808 0,7.65217 -5.84641,13.85494 -13.05649,13.85494 -7.21008,0 -13.05449,-6.20277 -13.05449,-13.85494 0,-7.65218 5.84441,-13.85707 13.05449,-13.85707 z m 0,246.56925 c 3.46241,0 6.78473,1.46061 9.23301,4.05902 2.44829,2.5984 3.82348,6.12228 3.82348,9.79703 0,7.65215 -5.84641,13.8549 -13.05649,13.8549 -7.21008,0 -13.05449,-6.20275 -13.05449,-13.8549 0,-7.65222 5.84441,-13.85605 13.05449,-13.85605 z m 486.83843,0 c 3.4624,0 6.7818,1.46061 9.23,4.05902 2.4483,2.5984 3.8246,6.12228 3.8246,9.79703 0,7.65215 -5.8445,13.8549 -13.0546,13.8549 -7.20998,0 -13.0553,-6.2028 -13.0553,-13.8549 0,-7.65222 5.84532,-13.85605 13.0553,-13.85605 z"
             style="fill:#ffd500;fill-rule:evenodd;stroke:none;stroke-opacity:1" />
          <path
             style="fill:#be00dd;fill-rule:evenodd"
             inkscape:connector-curvature="0"
             id="path31"
             d="m 557.8686,402.30992 0,0 c 0,24.12659 -23.55621,43.68506 -52.61423,43.68506 -29.05798,0 -52.61416,-19.55847 -52.61416,-43.68506 l 0,0 c 12.42053,13.75018 31.9133,21.84253 52.61416,21.84253 20.7009,0 40.19373,-8.09235 52.61423,-21.84253 z" />
          <path
             style="fill:#3768d8;fill-rule:evenodd"
             inkscape:connector-curvature="0"
             id="path33"
             d="m 590.2504,325.3882 0,0 c 0,-38.39626 31.1347,-69.52257 69.5412,-69.52257 l 0,0 c 18.4435,0 36.1316,7.32468 49.1732,20.3627 13.0415,13.038 20.3681,30.72134 20.3681,49.15987 l 0,0 c 0,38.39623 -31.1347,69.52256 -69.5413,69.52256 l 0,0 c -38.4065,0 -69.5412,-31.12633 -69.5412,-69.52256 z" />
          <path
             style="fill:#3768d8;fill-rule:evenodd"
             inkscape:connector-curvature="0"
             id="path35"
             d="m 288.45208,325.36464 0,0 c 0,-38.40657 31.13468,-69.54123 69.54124,-69.54123 l 0,0 c 18.44348,0 36.13158,7.32665 49.17308,20.36818 13.04151,13.04149 20.36815,30.72959 20.36815,49.17305 l 0,0 c 0,38.40655 -31.13468,69.54124 -69.54123,69.54124 l 0,0 c -38.40656,0 -69.54124,-31.13469 -69.54124,-69.54124 z" />
          <text
             sodipodi:linespacing="0%"
             id="text4369-8"
             y="104.67718"
             x="501.17285"
             style="font-style:normal;font-weight:normal;font-size:12px;line-height:0%;font-family:sans-serif;text-align:center;letter-spacing:0px;word-spacing:0px;text-anchor:middle;fill:#3768d8;fill-opacity:1;stroke:none;stroke-width:1px;stroke-linecap:butt;stroke-linejoin:miter;stroke-miterlimit:10;stroke-opacity:1"
             xml:space="preserve"><tspan
               style="font-style:normal;font-variant:normal;font-weight:bold;font-stretch:normal;font-size:92.47573853px;line-height:1.25;font-family:Orbitron;-inkscape-font-specification:'Orbitron Bold';fill:#3768d8;fill-opacity:1"
               id="tspan4373-2"
               y="104.67718"
               x="501.17285"
               sodipodi:role="line">RoboKoding</tspan></text>
        </g>
      </g>
    </g>
    <g
       inkscape:groupmode="layer"
       id="layer1"
       inkscape:label="Layer 1" />
  </g>
</svg>
