<?xml version="1.0" encoding="UTF-8" standalone="no"?>
<svg
   xmlns:dc="http://purl.org/dc/elements/1.1/"
   xmlns:cc="http://creativecommons.org/ns#"
   xmlns:rdf="http://www.w3.org/1999/02/22-rdf-syntax-ns#"
   xmlns:svg="http://www.w3.org/2000/svg"
   xmlns="http://www.w3.org/2000/svg"
   xmlns:sodipodi="http://sodipodi.sourceforge.net/DTD/sodipodi-0.dtd"
   xmlns:inkscape="http://www.inkscape.org/namespaces/inkscape"
   version="1.1"
   viewBox="0 0 150 110"
   stroke-miterlimit="10"
   id="svg2"
   inkscape:version="0.92.3 (3ce5693, 2018-03-11)"
   sodipodi:docname="sumologo.svg"
   width="150"
   height="110"
   style="fill:none;stroke:none;stroke-linecap:square;stroke-miterlimit:10"
   inkscape:export-filename="/Users/admin/Desktop/robokoding/assets/logo/SumoLogo.png"
   inkscape:export-xdpi="90"
   inkscape:export-ydpi="90">
  <metadata
     id="metadata43">
    <rdf:RDF>
      <cc:Work
         rdf:about="">
        <dc:format>image/svg+xml</dc:format>
        <dc:type
           rdf:resource="http://purl.org/dc/dcmitype/StillImage" />
        <dc:title></dc:title>
      </cc:Work>
    </rdf:RDF>
  </metadata>
  <defs
     id="defs41" />
  <sodipodi:namedview
     pagecolor="#ffffff"
     bordercolor="#666666"
     borderopacity="1"
     objecttolerance="10"
     gridtolerance="10"
     guidetolerance="10"
     inkscape:pageopacity="0"
     inkscape:pageshadow="2"
     inkscape:window-width="1373"
     inkscape:window-height="845"
     id="namedview39"
     showgrid="true"
     inkscape:zoom="1.9595594"
     inkscape:cx="29.995134"
     inkscape:cy="132.20697"
     inkscape:window-x="67"
     inkscape:window-y="27"
     inkscape:window-maximized="1"
     inkscape:current-layer="g7"
     showguides="false"
     inkscape:snap-intersection-paths="true"
     inkscape:object-nodes="true"
     inkscape:snap-smooth-nodes="true"
     inkscape:snap-midpoints="true"
     inkscape:object-paths="true"
     inkscape:snap-bbox="true"
     inkscape:snap-nodes="false">
    <inkscape:grid
       type="xygrid"
       id="grid4159" />
  </sodipodi:namedview>
  <clipPath
     id="g365e38974c_0_0.0">
    <path
       d="M 0,0 H 960 V 540 H 0 Z"
       id="path5"
       inkscape:connector-curvature="0"
       style="clip-rule:nonzero" />
  </clipPath>
  <g
     clip-path="url(#g365e38974c_0_0.0)"
     id="g7"
     transform="matrix(4.4490055,0,0,4.4490055,-930.37699,-1990.8556)"
     inkscape:export-xdpi="90"
     inkscape:export-ydpi="90">
    <g
       id="g4201"
       transform="matrix(0.08333333,0,0,0.08568388,189.82046,439.01267)">
      <path
         style="fill:#be00dd;fill-rule:nonzero;stroke:none;stroke-linecap:square;stroke-miterlimit:10"
         inkscape:connector-curvature="0"
         id="path17-6"
         d="m 275.29845,266.3202 v 57.60072 q 0,5.42336 3.89339,9.32696 3.90332,3.89369 9.31632,3.89369 h 9.8328 v 27.78224 h -9.8328 q -16.93426,0 -28.96205,-12.02871 -12.02779,-12.0287 -12.02779,-28.97418 v -55.22677 q -2.03608,-1.35086 -7.79671,-4.90684 -5.76063,-3.56589 -8.12447,-4.91677 v -32.53015 l 15.92118,-8.47275 v -55.56445 q 0,-17.2832 12.02779,-29.31191 12.02779,-12.02871 28.96205,-12.02871 h 9.8328 v 28.1299 h -9.8328 q -5.413,0 -9.31632,3.89368 -3.89339,3.89368 -3.89339,9.31704 v 57.93842 l -28.45551,22.70654 z" />
      <path
         style="fill:#3768d8;fill-rule:nonzero;stroke:none;stroke-linecap:square;stroke-miterlimit:10"
         inkscape:connector-curvature="0"
         id="path21-9"
         d="m 592.80842,323.92092 v -57.25308 l 28.46544,-23.38196 -28.46544,-22.36883 v -58.61386 q 0,-5.42336 -3.89339,-9.31704 -3.8934,-3.89368 -9.31633,-3.89368 h -9.82287 v -28.1299 h 9.82287 q 16.94418,0 28.97198,12.02871 12.02779,12.02871 12.02779,29.31191 v 55.56447 q 2.70154,1.36079 8.46216,4.91678 5.76063,3.55595 7.12132,4.2314 v 32.19243 l -15.58348,9.8236 v 54.88905 q 0,16.94548 -12.02779,28.97418 -12.0278,12.02871 -28.97198,12.02871 h -9.82287 v -27.78224 h 9.82287 q 5.42293,0 9.31633,-3.89369 3.89339,-3.9036 3.89339,-9.32696 z" />
      <text
         id="text4369"
         y="364.7467"
         x="433.6972"
         style="font-style:normal;font-weight:normal;line-height:0%;font-family:sans-serif;text-align:center;letter-spacing:0px;word-spacing:0px;text-anchor:middle;fill:#3768d8;fill-opacity:1;stroke:none;stroke-width:1px;stroke-linecap:butt;stroke-linejoin:miter;stroke-miterlimit:10;stroke-opacity:1"
         xml:space="preserve"><tspan
           style="font-style:normal;font-variant:normal;font-weight:bold;font-stretch:normal;font-size:39.89656067px;line-height:1.25;font-family:Orbitron;-inkscape-font-specification:'Orbitron Bold';fill:#3768d8;fill-opacity:1"
           id="tspan4373"
           y="364.7467"
           x="433.6972"
           sodipodi:role="line">SumoRobot</tspan></text>
      <path
         inkscape:connector-curvature="0"
         id="path15"
         d="m 335.36516,188.26217 -1.21138,0.0477 -2.39253,0.25429 -3.42387,0.76149 -4.21607,1.77728 -3.76838,2.5548 -3.21449,3.19075 -2.54104,3.7754 -1.77993,4.22119 -0.76239,3.39557 -0.26853,2.39719 -0.0458,1.2215 v 17.29671 h -19.91513 l -0.76239,0.0477 -1.42119,0.6025 -0.61216,0.50813 -0.50898,0.61945 -0.61303,1.42814 -0.0449,0.7615 v 51.716 l 0.0449,0.82427 0.61303,1.41301 1.07668,1.12668 1.41988,0.61945 0.80816,0.0472 h 19.91513 v 17.28114 l 0.0458,1.2215 0.26853,2.39626 0.76239,3.41161 1.77993,4.22119 2.54104,3.76027 3.21449,3.2059 3.76838,2.53967 4.21607,1.77728 3.42387,0.76102 2.39253,0.25294 h 1.21138 197.43862 1.22564 l 2.39205,-0.25294 3.40875,-0.76102 4.23118,-1.77728 3.75372,-2.53967 3.21405,-3.2059 2.5415,-3.76027 1.79504,-4.22119 0.76237,-3.41161 0.25428,-2.39626 v -1.2215 -17.28068 h 19.55639 l 0.76281,-0.1118 1.43587,-0.55576 0.59749,-0.50767 0.52366,-0.61854 0.59831,-1.41301 0.0592,-0.82427 v -51.66835 l -0.0592,-0.8096 -0.59831,-1.42769 -1.07628,-1.12758 -1.4203,-0.60204 -0.82325,-0.0481 h -19.55639 v -17.29671 l -0.0596,-2.34908 -0.91177,-4.52176 -1.7799,-4.26886 -2.55703,-3.80883 -1.56927,-1.73009 -1.73546,-1.58621 -3.87197,-2.58642 -4.21609,-1.73008 -4.54498,-0.92003 -2.33253,-0.0958 H 335.36514 Z m 86.78757,11.76787 h 22.92888 c 3.0037,0 5.43824,2.67783 5.43824,5.98106 0,3.30323 -2.43454,5.98107 -5.43824,5.98107 h -22.92888 c -3.00368,0 -5.43864,-2.67784 -5.43866,-5.98107 0,-3.30323 2.43498,-5.98106 5.43866,-5.98106 z m 116.48209,0.003 c 1.49378,0 2.92586,0.63014 3.98208,1.75116 1.05626,1.12102 1.65004,2.64179 1.65004,4.22716 0,3.30135 -2.52148,5.97786 -5.63212,5.97786 -3.11058,0 -5.63241,-2.67651 -5.63241,-5.97786 0,-3.30136 2.52183,-5.97832 5.63241,-5.97832 z m -210.03539,8.7e-4 c 1.49377,0 2.92711,0.63013 3.98337,1.75116 1.05626,1.12102 1.64955,2.64179 1.64955,4.22716 0,3.30135 -2.5223,5.9774 -5.63292,5.9774 -3.11063,0 -5.63207,-2.67605 -5.63207,-5.9774 0,-3.30136 2.52144,-5.97832 5.63207,-5.97832 z m 0,106.37671 c 1.49377,0 2.92711,0.63015 3.98337,1.75117 1.05626,1.12102 1.64955,2.64132 1.64955,4.22671 0,3.30134 -2.5223,5.97738 -5.63292,5.97738 -3.11063,0 -5.63207,-2.67604 -5.63207,-5.97738 0,-3.30138 2.52144,-5.97788 5.63207,-5.97788 z m 210.03539,0 c 1.49378,0 2.92586,0.63015 3.98208,1.75117 1.05626,1.12102 1.65004,2.64132 1.65004,4.22671 0,3.30134 -2.52148,5.97738 -5.63212,5.97738 -3.11058,0 -5.63241,-2.67606 -5.63241,-5.97738 0,-3.30138 2.52183,-5.97788 5.63241,-5.97788 z"
         style="fill:#ffd500;fill-rule:evenodd;stroke:none;stroke-opacity:1" />
      <path
         style="fill:#be00dd;fill-rule:evenodd"
         inkscape:connector-curvature="0"
         id="path31"
         d="m 458.1574,292.20982 v 0 c 0,10.40887 -10.1628,18.84692 -22.69922,18.84692 -12.53641,0 -22.69919,-8.43805 -22.69919,-18.84692 v 0 c 5.35856,5.9322 13.76827,9.42346 22.69919,9.42346 8.93093,0 17.34067,-3.49126 22.69922,-9.42346 z" />
      <path
         style="fill:#3768d8;fill-rule:evenodd"
         inkscape:connector-curvature="0"
         id="path33"
         d="m 472.12779,259.02368 v 0 c 0,-16.56519 13.43236,-29.99393 30.00197,-29.99393 v 0 c 7.95703,0 15.58816,3.16007 21.21466,8.78502 5.62646,5.62495 8.78736,13.25403 8.78736,21.20891 v 0 c 0,16.56519 -13.43236,29.99394 -30.00202,29.99394 v 0 c -16.56961,0 -30.00197,-13.42875 -30.00197,-29.99394 z" />
      <path
         style="fill:#3768d8;fill-rule:evenodd"
         inkscape:connector-curvature="0"
         id="path35"
         d="m 341.92375,259.01352 v 0 c 0,-16.56964 13.43235,-30.00199 30.00199,-30.00199 v 0 c 7.95702,0 15.58815,3.16092 21.21461,8.78739 5.62646,5.62646 8.78738,13.25759 8.78738,21.2146 v 0 c 0,16.56963 -13.43236,30.00199 -30.00199,30.00199 v 0 c -16.56964,0 -30.00199,-13.43236 -30.00199,-30.00199 z" />
    </g>
    <g
       inkscape:groupmode="layer"
       id="layer1"
       inkscape:label="Layer 1" />
  </g>
</svg>
